<?xml version="1.0" standalone="no"?>
<!DOCTYPE svg PUBLIC "-//W3C//DTD SVG 20010904//EN"
 "http://www.w3.org/TR/2001/REC-SVG-20010904/DTD/svg10.dtd">
<svg version="1.0" xmlns="http://www.w3.org/2000/svg"
 width="250.000000pt" height="250.000000pt" viewBox="0 0 250.000000 250.000000"
 preserveAspectRatio="xMidYMid meet">
<metadata>
Created by potrace 1.14, written by Peter Selinger 2001-2017
</metadata>
<g transform="translate(0.000000,250.000000) scale(0.100000,-0.100000)"
fill="#000000" stroke="none">
<path d="M445 2278 c-133 -17 -223 -64 -327 -173 -35 -37 -94 -156 -104 -210
-8 -47 -9 -170 -1 -203 27 -106 72 -187 145 -257 36 -35 131 -96 143 -92 3 1
12 -3 20 -10 8 -6 26 -14 39 -17 14 -3 36 -8 50 -12 14 -3 392 -8 840 -9 448
-1 831 -5 850 -9 85 -16 172 -56 245 -111 51 -38 53 -40 104 -104 l42 -54 -2
49 c-6 122 -65 247 -164 349 -81 82 -157 127 -267 157 l-78 21 0 196 0 196
252 0 253 0 0 144 c0 97 -3 145 -11 148 -20 7 -1968 8 -2029 1z"/>
<path d="M5 1468 c12 -93 16 -112 35 -164 28 -82 65 -139 134 -208 70 -71 133
-110 226 -142 l65 -22 0 -200 1 -200 -196 -1 c-107 0 -209 0 -227 -1 l-31 0
-1 -144 c0 -105 3 -145 12 -148 7 -3 471 -4 1032 -3 950 1 1024 2 1080 19 132
39 241 132 305 259 22 42 38 77 36 77 -2 0 0 17 5 38 10 38 13 142 5 177 -13
62 -22 86 -52 146 -74 141 -225 246 -382 264 -20 3 -390 5 -822 5 -863 1 -864
1 -988 62 -65 32 -172 126 -220 193 l-22 30 5 -37z"/>
</g>
</svg>
